<svg width="71" height="77" viewBox="0 0 71 77" fill="none" xmlns="http://www.w3.org/2000/svg">
<path d="M54.7334 0.752315L54.8102 0.816301C55.63 1.4988 55.5836 2.8048 54.6711 4.73429C56.4214 5.75781 58.1163 6.95206 59.7558 8.31706C62.3687 10.4925 64.1451 12.5787 65.0849 14.5757C65.6995 14.5669 66.4164 14.383 67.2357 14.0242C67.9696 13.7678 68.4903 13.7675 68.7977 14.0235C69.1051 14.2794 69.2632 14.7147 69.272 15.3292L69.2081 15.4061C68.9095 15.7647 68.0133 16.0596 66.5197 16.2907C66.1527 16.4189 65.8583 16.5642 65.6364 16.7265C65.7903 17.3751 65.7651 18.1348 65.5606 19.0056C65.501 19.3897 65.5011 19.65 65.561 19.7866C65.7147 19.9146 66.7646 20.008 68.7108 20.0669C69.4278 20.1434 69.8632 20.2456 70.0169 20.3736C70.3074 20.9624 70.4698 21.4446 70.5041 21.8202C69.8812 22.2558 68.396 22.3205 66.0485 22.0142C66.0058 22.0654 65.7242 22.0912 65.2035 22.0914C63.9076 25.5234 61.3106 30.518 57.4127 37.0752C56.3465 38.8767 55.613 40.1745 55.2122 40.9685C56.6892 41.5909 58.0425 42.4141 59.2721 43.4378L59.4258 43.5658C62.0387 45.7412 63.589 48.2031 64.0768 50.9514C64.2739 52.5902 63.8818 53.9988 62.9007 55.1772C61.749 56.5605 60.2044 57.2696 58.2668 57.3046C57.4046 57.1941 56.7173 56.9255 56.205 56.4989L55.8976 56.243C54.8217 55.3472 54.2662 53.9305 54.2312 51.9929C54.2563 50.7125 54.5674 49.7137 55.1646 48.9964L55.3565 48.7659C55.9964 47.9974 56.9095 47.6299 58.096 47.6635C58.3951 48.3463 58.2887 48.995 57.7768 49.6098C57.5976 49.7209 57.4867 49.802 57.444 49.8533L58.5199 50.749C59.0322 51.1756 59.2373 51.6066 59.1351 52.0419L58.9431 52.2725C58.4567 52.6483 58.0855 52.7295 57.8293 52.5163L57.7524 52.4523L57.0351 51.5947C56.9326 51.5094 56.7875 51.4754 56.5997 51.4925C55.8319 52.4147 55.8494 53.3835 56.6522 54.3989C56.6608 54.4928 56.7419 54.6037 56.8956 54.7317L56.9725 54.7957C57.8434 55.5208 58.8294 55.6911 59.9303 55.3065C60.2887 55.0844 60.6599 54.7428 61.0438 54.2817L61.1718 54.128C62.7074 52.2836 62.4034 49.9919 60.2597 47.2529C59.9351 46.8091 59.333 46.1778 58.4535 45.3587C57.2751 44.3776 55.8749 43.5588 54.2528 42.9023C53.2717 44.0807 51.5019 47.2482 48.9435 52.405C47.6812 54.6505 46.6022 56.3111 45.7064 57.3871L45.4504 57.6945C44.3414 59.0265 42.6136 60.5808 40.267 62.3573C39.9172 62.6733 39.657 62.9337 39.4863 63.1387L36.9527 66.4944C36.6541 66.853 36.074 67.4977 35.2123 68.4285C34.1885 69.6581 33.8091 70.6868 34.0741 71.5147C34.2366 72.2572 34.6253 72.8845 35.2401 73.3963C36.4185 74.3774 37.6904 74.5689 39.0558 73.9708C39.4142 73.7487 39.6574 73.5608 39.7854 73.4071L39.9774 73.1766C40.3613 72.7155 40.4251 72.3783 40.169 72.165L40.0921 72.101C39.9384 71.973 39.4817 71.8964 38.722 71.8711C38.5769 71.8371 38.4275 71.756 38.2738 71.6281C37.9664 71.3721 37.8936 70.8344 38.0554 70.0149C38.1321 69.8185 38.1918 69.6947 38.2345 69.6435C38.7037 69.0799 39.5231 68.9814 40.6927 69.3479C40.889 69.4247 41.1665 69.6123 41.5251 69.9109C42.6011 70.8067 42.8448 71.9205 42.2564 73.2524C42.1797 73.4487 42.056 73.6494 41.8854 73.8543L41.5655 74.2386C40.5417 75.4682 39.4495 76.207 38.2887 76.4551C36.8718 76.4898 35.651 76.0806 34.6263 75.2275L34.1652 74.8436C32.9356 73.8199 32.2223 72.4886 32.0252 70.8498C32.0076 69.6207 32.66 68.212 33.9823 66.6237C35.0146 65.488 35.8081 64.5871 36.3626 63.9211L36.6825 63.5368C37.237 62.8708 37.7744 62.017 38.2946 60.9754C37.5433 60.5233 36.8602 60.0414 36.2454 59.5295L36.1686 59.4655C33.9143 57.5886 32.8291 55.0369 32.913 51.8103C32.853 51.1531 32.5412 50.5899 31.9776 50.1207L31.747 49.9287C31.1925 50.5948 29.968 51.4403 28.0735 52.4655C27.3221 52.0134 26.7159 51.5954 26.2548 51.2115L25.7937 50.8276C24.769 49.9745 24.4912 49.0058 24.9602 47.9216L24.8833 47.8576C23.9018 47.9946 22.8987 47.6365 21.874 46.7834C21.1055 46.1436 20.6826 45.4011 20.6054 44.5561C20.503 44.4708 21.066 43.6383 22.2944 42.0587L22.2176 41.9947C21.3978 41.3122 20.1728 41.1164 18.5426 41.4073C17.9964 41.6466 17.352 41.5871 16.6092 41.2289C16.0201 40.9987 15.367 40.5851 14.6497 39.9879L13.4969 39.0281L13.241 39.3355C12.7291 39.9503 11.6243 41.3293 9.92667 43.4726C7.62324 46.2392 5.67334 47.4351 4.07698 47.0602C3.53914 46.8727 3.06529 46.6083 2.65542 46.267C1.63074 45.4139 1.03692 44.0954 0.873943 42.3115C0.830823 41.3213 1.10786 40.4676 1.70504 39.7504C2.55817 38.7257 3.60371 38.5118 4.84166 39.1088C5.14049 39.2708 5.34113 39.3945 5.4436 39.4798C6.10964 40.0343 6.33613 40.7 6.12309 41.4769C6.04635 41.6732 5.98665 41.797 5.944 41.8483C5.6454 42.2069 5.23577 42.3863 4.71508 42.3866L4.56138 42.2586C4.40768 42.1306 4.37766 41.802 4.47132 41.2728C4.41151 41.1362 4.33037 41.0253 4.2279 40.94C3.59617 40.761 3.15234 40.8252 2.8964 41.1326C2.38453 41.7474 2.41907 42.6437 3.00003 43.8214C3.16231 44.0432 3.3203 44.2181 3.474 44.3461L3.6277 44.4741C4.54991 45.2419 5.67659 45.1389 7.00774 44.1653C7.40022 43.7981 7.74576 43.4351 8.04435 43.0765L8.49224 42.5385C8.79083 42.1799 9.90835 40.6814 11.8448 38.043L12.1647 37.6587C11.3531 36.0287 11.1304 34.3686 11.4967 32.6784C11.94 31.3124 12.5882 30.1171 13.4413 29.0925L13.9532 28.4777C15.5314 26.582 19.064 23.7978 24.5509 20.1249L26.7396 18.4339C26.2611 17.3415 25.4839 16.3474 24.408 15.4516L23.87 15.0038C22.0256 13.4681 20.0321 12.6325 17.8896 12.4969C16.6178 12.5658 15.662 12.9844 15.0221 13.7529L14.8941 13.9066C14.2116 14.7264 14.0712 15.5203 14.4727 16.2883C14.6435 16.6041 14.857 16.8686 15.1132 17.0819L15.1901 17.1458C15.6512 17.5297 16.2402 17.76 16.9573 17.8365C16.9999 17.7852 17.0979 17.3029 17.2511 16.3895L17.4302 16.0181C17.7288 15.6595 18.0488 15.5356 18.3903 15.6464C18.4416 15.689 18.4928 15.7317 18.544 15.7744L18.6209 15.8383C18.8258 16.009 18.9413 16.4955 18.9672 17.2978C18.993 17.5795 19.0571 17.763 19.1595 17.8483C19.3645 18.0189 19.7613 17.959 20.3502 17.6685C20.538 17.6513 20.7087 17.7067 20.8624 17.8347L20.9393 17.8987C21.0417 17.984 20.965 18.1804 20.7091 18.4878L20.5811 18.6415C19.1734 20.3322 17.3811 20.6616 15.204 19.6298C14.8966 19.3738 14.6404 19.1605 14.4355 18.9899C12.8985 17.7102 12.3216 16.0588 12.7048 14.0357C12.969 13.3015 13.3145 12.6782 13.741 12.1659C15.4046 10.1677 17.5341 9.64184 20.1294 10.5882C21.8368 11.1422 23.4846 12.0804 25.0728 13.4028L25.7645 13.9786C26.7892 14.8317 27.7072 15.813 28.5186 16.9222C33.084 14.0436 37.8199 10.6998 42.7262 6.89063C44.3731 5.7461 45.5165 4.78958 46.1564 4.02107L46.2203 3.94422C46.5616 3.53435 46.685 2.81302 46.5907 1.78024C46.5904 1.25955 46.7183 0.845511 46.9742 0.538106L47.0382 0.461257C47.4734 0.042809 47.819 -0.0597746 48.0752 0.153506C48.69 0.66538 48.81 1.7195 48.4351 3.31586C49.6557 3.20435 50.5818 3.23808 51.2135 3.41705C51.3074 3.40847 51.8666 3.5704 52.891 3.90284C53.1043 3.64668 53.3899 2.88686 53.7479 1.62341C53.8332 1.52094 53.9355 1.34591 54.0549 1.09832C54.2255 0.893384 54.4517 0.77805 54.7334 0.752315ZM53.7246 6.80891C53.4944 7.39798 53.2513 7.84622 52.9954 8.15362C52.6541 8.56349 52.2785 8.59781 51.8687 8.25656L51.715 8.12859C51.1428 7.56548 51.1767 6.89967 51.8165 6.13116L51.9445 5.97746C51.4321 5.5509 50.7193 5.261 49.8059 5.10776C49.1999 5.21046 48.786 5.34295 48.5641 5.50523C48.5641 5.50523 48.4662 5.98755 48.2703 6.95218C48.2788 7.04607 48.2191 7.16987 48.0912 7.32356C47.8779 7.57973 47.5493 7.60976 47.1053 7.41363L47.0285 7.34965C46.926 7.26434 46.7594 6.99553 46.5288 6.54324C46.4775 6.50058 46.4007 6.4366 46.2982 6.35128C46.247 6.30863 45.718 6.73565 44.7111 7.63236C42.6803 9.23799 39.2458 11.8003 34.4076 15.3192C32.7266 16.6088 31.0755 17.9667 29.4544 19.3929C30.2062 20.8864 30.4115 21.838 30.0702 22.2479L29.9423 22.4016C29.4559 22.7774 29.0846 22.8586 28.8284 22.6454C28.521 22.3894 28.3245 21.792 28.2387 20.8531C28.1191 20.58 28.0336 20.4221 27.9824 20.3795C27.4705 20.9943 24.9362 22.7879 20.3794 25.7604C18.1522 27.2893 16.4841 28.7198 15.3751 30.0519C13.5835 32.2037 13.1576 34.2781 14.0975 36.275C14.1487 36.3177 14.1743 36.339 14.1743 36.339C14.7632 36.0485 15.7531 35.4847 17.144 34.6476C17.5282 34.7072 17.8227 34.8223 18.0276 34.9929C18.4547 35.522 18.4975 35.9914 18.1563 36.4013L18.0923 36.4781C17.879 36.7343 17.2432 37.0291 16.185 37.3624C15.8265 37.5845 15.6047 37.7468 15.5194 37.8493C15.4767 37.9005 15.6603 38.0967 16.0702 38.438C16.8387 39.0778 18.1789 39.2394 20.0908 38.9227C21.9259 38.8024 23.9706 39.6807 26.2249 41.5576L26.5323 41.8135C27.3521 42.496 29.8626 44.8465 34.064 48.865C34.696 49.5646 35.0248 50.0553 35.0506 50.337C35.1618 51.0369 35.1453 52.1508 35.0008 53.6787C35.0015 55.2408 36.1034 56.9389 38.3065 58.7731L38.8444 59.221L38.9084 59.1442C39.1217 58.888 39.1043 58.1796 38.8562 57.0188C38.8474 56.4042 38.9497 55.9689 39.1629 55.7127C39.3762 55.4565 39.7432 55.3283 40.2639 55.3281C40.8275 55.7973 41.0412 56.5825 40.9051 57.6837C40.9139 58.2982 41.0208 58.6908 41.2257 58.8615C42.2328 58.4854 43.1629 57.7851 44.016 56.7604L44.208 56.5299C45.573 54.8904 47.4707 51.5691 49.9012 46.5661C51.1037 44.184 51.8755 42.7881 52.2168 42.3782C51.3205 42.4128 50.6675 42.2594 50.2576 41.9182C49.7453 41.4916 49.7237 40.9965 50.1929 40.433C50.6195 39.9206 51.3407 39.7837 52.3566 40.0223C52.5017 40.0564 52.7493 40.1758 53.0993 40.3805C57.782 32.5681 61.1936 26.3867 63.334 21.8362C63.2316 21.7509 62.9243 21.7553 62.4122 21.8494L62.1816 21.6574C61.7034 21.0857 61.6775 20.5437 62.1041 20.0314L62.1681 19.9545C62.5093 19.5447 62.9531 19.4805 63.4996 19.7619L63.5764 19.8259C63.8238 19.4246 63.8788 18.4728 63.7416 16.9706C63.1785 17.5427 62.7688 17.7222 62.5127 17.5089C62.4614 17.4662 62.4358 17.4449 62.4358 17.4449L62.359 17.3809L62.2821 17.3169C61.821 16.933 61.7269 16.4209 61.9997 15.7806L62.1917 15.5501C62.4476 15.2427 62.7634 15.0718 63.1389 15.0375C62.2163 13.2283 60.7815 11.5133 58.8346 9.89233L58.6809 9.76436C56.9902 8.3567 55.3381 7.37156 53.7246 6.80891ZM47.9058 22.3936L48.1364 22.5855C50.3907 24.4624 51.5697 27.0056 51.6736 30.215C51.5466 32.4514 50.8005 34.3894 49.4355 36.0288C47.4307 38.4368 44.6699 39.5648 41.1531 39.4127C39.0873 39.0807 37.3883 38.3602 36.0562 37.2511L35.672 36.9312C33.7251 35.3103 32.5931 33.0232 32.2759 30.07C32.2321 27.5178 32.8927 25.4219 34.2577 23.7825L34.6416 23.3214C35.964 21.7331 37.8585 20.708 40.3251 20.2459C43.2783 19.9288 45.8052 20.6447 47.9058 22.3936ZM34.9108 23.9358C33.0766 26.1389 32.5187 28.8407 33.2371 32.0413C33.8354 33.9274 34.8519 35.4677 36.2864 36.6621C38.4895 38.4963 41.0804 39.1353 44.0591 38.5792C46.099 38.1088 47.6948 37.1819 48.8465 35.7986L49.0384 35.5681C50.7873 33.4675 51.3325 30.8852 50.6738 27.8211C50.1608 25.8325 49.1358 24.1984 47.5988 22.9187C45.3445 21.0418 42.6128 20.4156 39.4036 21.0402C37.5601 21.5873 36.0625 22.5525 34.9108 23.9358ZM44.5407 27.5294C45.7191 28.5105 46.2191 29.8376 46.0406 31.5107C45.8616 32.1424 45.5588 32.7144 45.1323 33.2267L45.0683 33.3036C44.0445 34.5332 42.6363 34.9222 40.8436 34.4706C40.3057 34.2831 39.8319 34.0187 39.422 33.6774C38.1924 32.6537 37.7564 31.2497 38.1142 29.4656C38.2078 28.9363 38.4039 28.4924 38.7025 28.1337L38.8945 27.9032C39.8329 26.776 41.1473 26.3956 42.8375 26.7619C43.5119 26.8896 44.0796 27.1455 44.5407 27.5294ZM41.8266 28.1324L41.7626 28.2092C41.592 28.4141 41.6647 28.6915 41.9807 29.0413L42.0575 29.1053C42.3649 29.3613 42.6935 29.3312 43.0434 29.0153C43.214 28.8103 43.137 28.486 42.8125 28.0423C42.4112 27.7949 42.0826 27.8249 41.8266 28.1324ZM42.0332 31.9478L41.9052 32.1015C41.6238 32.6479 41.688 33.0917 42.0979 33.433C42.559 33.8169 43.0327 33.8209 43.5191 33.4451L43.5831 33.3683C43.6684 33.2658 43.7451 33.0695 43.8133 32.7792C43.9157 32.8645 44.0779 32.826 44.2998 32.6638L44.3637 32.5869C44.5344 32.382 44.466 32.1515 44.1586 31.8956C43.8598 31.7336 43.625 31.755 43.4544 31.9599C42.9933 31.576 42.5196 31.572 42.0332 31.9478ZM24.2411 43.1589C23.7802 43.2957 23.3151 43.6459 22.8459 44.2094L22.718 44.3631C22.5473 44.5681 22.5132 44.7132 22.6157 44.7985C22.8805 45.1057 23.1922 45.4086 23.5508 45.7072C24.1656 46.219 24.7588 46.2358 25.3305 45.7576C25.8596 45.3305 26.1454 45.0914 26.1881 45.0402C25.2658 44.2724 24.6168 43.6453 24.2411 43.1589ZM27.3537 46.1408L27.2897 46.2176C26.9911 46.5763 26.7524 47.3318 26.5737 48.4842C26.8983 48.9279 27.2655 49.3204 27.6753 49.6617L28.1364 50.0456C28.3926 50.2588 28.5847 50.2886 28.7126 50.1349C29.3015 49.8444 29.7239 49.5455 29.9798 49.2381L30.2997 48.8539C30.0093 48.265 29.6078 47.7573 29.0955 47.3308C28.643 47.0407 28.0624 46.6441 27.3537 46.1408Z" fill="white"/>
</svg>
